<?xml version="1.0" standalone="no"?>
<!DOCTYPE svg PUBLIC "-//W3C//DTD SVG 20010904//EN"
 "http://www.w3.org/TR/2001/REC-SVG-20010904/DTD/svg10.dtd">
<svg version="1.0" xmlns="http://www.w3.org/2000/svg"
 width="24" height="24" viewBox="0 0 512.000000 512.000000"
 preserveAspectRatio="xMidYMid meet">

<g transform="translate(0.000000,512.000000) scale(0.100000,-0.100000)"
fill="#000000" stroke="none">
<path d="M2107 4532 c1862 -3240 2289 -3979 2295 -3974 25 26 412 714 428 762
24 72 27 194 6 265 -8 26 -370 669 -803 1428 -872 1527 -825 1452 -971 1524
l-76 38 -453 3 -454 3 28 -49z"/>
<path d="M1171 3029 c-282 -489 -511 -892 -509 -894 3 -3 466 -4 1030 -3
l1025 3 -509 880 c-280 484 -512 885 -516 892 -4 7 -223 -363 -521 -878z"/>
<path d="M273 1453 c93 -173 424 -729 454 -763 54 -61 126 -107 204 -131 58
-18 113 -19 1380 -19 725 0 1319 3 1319 6 0 4 -118 211 -262 460 l-261 454
-1419 0 c-781 0 -1417 -3 -1415 -7z"/>
</g>
</svg>
