<?xml version="1.0" standalone="no"?>
<!DOCTYPE svg PUBLIC "-//W3C//DTD SVG 20010904//EN"
 "http://www.w3.org/TR/2001/REC-SVG-20010904/DTD/svg10.dtd">
<svg version="1.0" xmlns="http://www.w3.org/2000/svg"
 width="24" height="24" viewBox="0 0 1024.000000 1024.000000"
 preserveAspectRatio="xMidYMid meet">

<g transform="translate(0.000000,1024.000000) scale(0.100000,-0.100000)"
fill="#000000" stroke="none">
<path d="M2270 8046 c0 -3 21 -35 47 -73 25 -37 74 -108 108 -158 63 -92 116
-169 197 -285 24 -36 75 -110 113 -165 38 -55 87 -127 110 -160 23 -33 72
-105 110 -160 38 -55 89 -129 114 -165 42 -60 106 -154 199 -290 21 -30 63
-91 93 -135 31 -44 87 -125 124 -180 38 -55 84 -122 104 -150 19 -27 69 -99
110 -160 41 -60 92 -135 114 -165 21 -30 67 -98 103 -150 36 -52 116 -169 179
-260 63 -91 144 -208 179 -260 36 -52 88 -129 117 -170 79 -113 109 -157 109
-162 0 -5 -10 -17 -63 -78 -12 -14 -58 -68 -102 -120 -44 -52 -82 -97 -85
-100 -3 -3 -46 -52 -95 -110 -93 -109 -133 -155 -150 -174 -6 -6 -33 -38 -60
-71 -28 -33 -59 -69 -70 -81 -32 -33 -128 -145 -150 -173 -10 -14 -22 -28 -25
-31 -3 -3 -34 -39 -70 -80 -36 -41 -67 -77 -70 -80 -3 -3 -15 -17 -25 -31 -17
-21 -100 -119 -140 -163 -17 -19 -189 -220 -210 -245 -11 -14 -42 -50 -70 -81
-27 -31 -72 -83 -100 -115 -27 -32 -64 -75 -81 -94 -17 -20 -40 -47 -52 -61
-11 -14 -30 -36 -42 -50 -12 -14 -40 -47 -63 -74 -23 -27 -51 -59 -62 -70 -11
-12 -37 -41 -57 -66 -20 -25 -49 -58 -63 -75 -15 -16 -43 -50 -63 -74 -21 -24
-42 -49 -48 -55 -5 -6 -39 -45 -74 -86 -35 -41 -67 -77 -70 -80 -3 -3 -23 -26
-44 -52 l-38 -48 245 0 246 0 19 24 c16 22 69 83 135 160 11 11 35 41 55 65
21 24 42 49 47 55 23 25 134 153 156 180 13 16 44 53 69 81 25 28 56 65 70 81
40 47 144 168 155 180 5 6 28 32 50 59 22 26 45 53 51 59 12 12 128 148 159
185 11 14 43 50 70 81 28 31 73 83 100 115 54 63 114 133 130 151 6 6 28 33
50 59 22 27 45 53 50 59 9 9 204 238 270 315 11 13 25 29 30 35 6 6 39 45 75
86 36 41 67 77 70 80 3 3 21 25 42 50 20 25 54 65 77 90 47 53 39 59 136 -85
38 -55 83 -120 100 -145 17 -25 62 -90 100 -145 38 -55 88 -128 112 -163 24
-35 78 -113 120 -175 42 -62 94 -137 116 -167 21 -30 59 -86 85 -125 25 -38
49 -72 52 -75 5 -5 47 -66 164 -240 28 -41 53 -77 56 -80 3 -3 28 -39 56 -80
49 -73 93 -137 185 -270 94 -135 185 -268 248 -360 35 -52 71 -105 80 -117
l16 -22 843 -1 c463 0 842 2 842 5 0 2 -42 64 -93 137 -51 73 -123 178 -160
233 -66 97 -152 221 -245 355 -25 36 -78 113 -119 172 -40 59 -89 130 -108
158 -19 28 -69 100 -110 160 -41 60 -91 133 -112 162 -20 29 -64 94 -98 143
-34 50 -82 119 -107 155 -43 63 -96 140 -215 313 -31 45 -75 109 -98 142 -23
33 -72 105 -110 160 -38 55 -84 123 -104 150 -19 28 -66 95 -104 150 -37 55
-85 125 -106 155 -21 30 -67 98 -103 150 -35 52 -87 127 -113 165 -27 39 -78
112 -112 164 -35 51 -76 109 -90 128 -28 36 -27 38 27 93 8 8 38 42 65 75 51
61 92 109 110 129 6 6 51 58 100 116 49 58 94 110 100 116 30 33 123 141 140
163 10 14 26 33 35 41 13 13 43 48 141 164 13 16 29 34 34 40 6 6 39 45 75 86
36 41 70 80 75 86 6 6 26 31 47 55 20 24 46 55 58 69 12 14 38 45 58 69 21 24
55 64 77 89 61 69 74 84 113 131 21 25 57 68 82 96 25 28 68 78 95 110 28 32
73 84 100 115 28 31 59 67 70 81 31 37 147 173 159 185 6 6 27 31 48 55 20 24
48 58 63 74 14 17 43 50 63 75 20 25 44 52 52 60 8 8 39 43 68 78 l53 62 -244
0 -245 0 -54 -62 c-30 -35 -65 -76 -79 -92 -13 -16 -33 -38 -44 -50 -11 -12
-33 -37 -49 -56 -16 -19 -52 -62 -81 -95 -29 -33 -72 -83 -96 -111 -24 -28
-69 -79 -99 -114 -113 -130 -136 -157 -177 -205 -23 -28 -51 -61 -63 -75 -13
-14 -55 -63 -94 -110 -39 -47 -85 -101 -103 -120 -38 -42 -56 -63 -108 -126
-22 -26 -45 -52 -50 -58 -6 -6 -51 -58 -100 -116 -98 -114 -134 -157 -150
-174 -6 -6 -51 -58 -100 -116 -49 -58 -94 -110 -100 -116 -5 -6 -28 -32 -50
-59 -22 -27 -60 -72 -85 -100 -75 -85 -144 -167 -159 -188 -14 -19 -14 -19
-32 4 -11 13 -45 62 -76 109 -32 47 -60 87 -63 90 -6 5 -48 66 -158 230 -31
47 -59 87 -62 90 -3 3 -27 37 -53 75 -26 39 -72 106 -102 150 -31 44 -80 116
-110 160 -56 82 -89 131 -203 295 -36 52 -98 142 -137 200 -39 58 -91 132
-114 165 -23 33 -63 92 -89 130 -25 39 -49 72 -52 75 -3 3 -29 40 -58 83 -28
42 -76 112 -104 155 -29 42 -55 79 -59 82 -3 3 -11 15 -18 28 l-12 22 -844 0
c-465 0 -845 -2 -845 -4z m1566 -501 c45 -66 97 -140 114 -165 17 -25 67 -97
110 -160 95 -138 126 -184 188 -272 26 -37 76 -110 112 -163 36 -53 86 -126
112 -163 63 -90 95 -136 188 -272 43 -63 93 -136 112 -162 18 -26 82 -119 141
-205 201 -293 472 -687 532 -773 75 -109 133 -193 210 -305 34 -49 83 -121
110 -160 27 -38 76 -110 110 -160 34 -49 83 -121 110 -160 27 -38 76 -110 110
-160 34 -49 84 -121 110 -160 27 -38 76 -110 110 -160 34 -49 82 -119 107
-155 24 -36 68 -99 96 -140 69 -100 66 -96 118 -170 25 -36 71 -103 102 -150
31 -47 59 -87 62 -90 3 -3 25 -34 49 -70 25 -36 65 -94 89 -130 206 -299 322
-469 322 -475 0 -3 -170 -5 -377 -5 l-378 0 -17 28 c-9 15 -40 61 -69 102 -29
41 -80 116 -114 165 -34 50 -83 122 -110 160 -27 39 -78 113 -114 165 -36 52
-81 118 -100 146 -20 28 -69 100 -110 160 -41 60 -90 132 -110 159 -19 28 -60
86 -90 130 -30 44 -79 116 -109 160 -31 44 -90 130 -131 190 -41 61 -92 135
-114 165 -21 30 -59 87 -85 125 -25 39 -49 72 -52 75 -3 3 -28 39 -56 80 -28
41 -73 107 -99 145 -27 39 -76 111 -110 160 -34 50 -84 122 -110 160 -27 39
-76 111 -110 160 -34 50 -79 115 -100 145 -21 30 -71 102 -109 159 -39 57 -90
131 -114 165 -24 33 -72 104 -107 156 -36 52 -85 124 -110 160 -25 36 -75 108
-110 160 -36 52 -82 120 -103 150 -21 30 -68 98 -103 150 -36 52 -87 127 -114
165 -27 39 -76 111 -110 160 -34 50 -83 122 -110 160 -27 39 -71 104 -99 145
-28 41 -53 77 -56 80 -3 3 -27 37 -52 75 -54 80 -153 225 -165 240 -5 6 -26
37 -47 70 -22 33 -53 77 -69 98 l-29 37 383 -2 382 -3 83 -120z"/>
</g>
</svg>
